<svg width="1000" height="1000" viewBox="0 0 1000 1000" fill="none" xmlns="http://www.w3.org/2000/svg">
<g clip-path="url(#clip0_101_1441)">
<path d="M850 185.352L814.647 150L150 814.647L185.352 850L235.353 800H750C763.255 799.982 775.963 794.709 785.336 785.336C794.709 775.963 799.982 763.255 800 750V235.353L850 185.352ZM750 750H285.353L480.175 555.175L539.645 614.642C549.022 624.019 561.739 629.287 575 629.287C588.261 629.287 600.978 624.019 610.355 614.642L650 575L750 674.932V750ZM750 604.205L685.355 539.558C675.978 530.181 663.261 524.913 650 524.913C636.739 524.913 624.022 530.181 614.645 539.558L575 579.205L515.575 519.777L750 285.353V604.205Z" fill="black"/>
<path d="M250 650V575L375 450.085L409.332 484.418L444.73 449.018L410.355 414.643C400.978 405.266 388.261 399.998 375 399.998C361.739 399.998 349.022 405.266 339.645 414.643L250 504.29V250H650V200H250C236.743 200.013 224.033 205.285 214.659 214.659C205.285 224.033 200.013 236.743 200 250V650H250Z" fill="black"/>
</g>
<defs>
<clipPath id="clip0_101_1441">
<rect width="800" height="800" fill="white" transform="translate(100 100)"/>
</clipPath>
</defs>
</svg>
